<?xml version="1.0" encoding="utf-8"?>
<!-- Generator: Adobe Illustrator 21.1.0, SVG Export Plug-In . SVG Version: 6.00 Build 0)  -->
<svg version="1.1" id="Camada_1" xmlns="http://www.w3.org/2000/svg" xmlns:xlink="http://www.w3.org/1999/xlink" x="0px" y="0px"
	 viewBox="0 0 12 12" style="enable-background:new 0 0 12 12;" xml:space="preserve">
<style type="text/css">
	.st0{fill:#005A9C;}
</style>
<path class="st0" d="M10.1,7.2C9.8,6.9,9.5,6.7,9.2,6.7c-0.3,0-0.7,0.1-0.9,0.4L7.4,8C7.3,8,7.3,7.9,7.2,7.9C7.1,7.8,7,7.8,6.9,7.7
	c-0.8-0.5-1.5-1.2-2.2-2C4.4,5.3,4.2,4.9,4,4.6C4.2,4.4,4.4,4.2,4.6,4c0.1-0.1,0.2-0.2,0.2-0.2c0.6-0.6,0.6-1.3,0-1.9L4.1,1.2
	C4,1.1,3.9,1,3.9,0.9C3.7,0.7,3.5,0.6,3.3,0.4C3.1,0.1,2.8,0,2.4,0C2.1,0,1.8,0.1,1.5,0.4l0,0L0.6,1.3C0.3,1.7,0.1,2.1,0,2.6
	c-0.1,0.8,0.2,1.5,0.3,2C0.8,5.7,1.4,6.8,2.4,8c1.2,1.4,2.6,2.5,4.2,3.3C7.3,11.6,8.1,11.9,9,12c0.1,0,0.1,0,0.2,0
	c0.6,0,1.1-0.2,1.6-0.7c0,0,0,0,0,0c0.1-0.2,0.3-0.3,0.5-0.5c0.1-0.1,0.2-0.2,0.4-0.3c0.3-0.3,0.4-0.6,0.4-0.9
	c0-0.3-0.1-0.7-0.4-0.9L10.1,7.2z M11.1,10C11.1,10,11.1,10,11.1,10c-0.1,0.1-0.2,0.2-0.3,0.3c-0.2,0.2-0.4,0.3-0.5,0.5
	c-0.3,0.3-0.6,0.4-1,0.4c0,0-0.1,0-0.1,0c-0.8-0.1-1.5-0.4-2.1-0.6C5.4,9.9,4.1,8.9,3,7.5C2.1,6.4,1.5,5.4,1,4.3
	C0.8,3.6,0.7,3.1,0.7,2.6c0-0.3,0.1-0.6,0.4-0.8L2,0.9c0.1-0.1,0.3-0.2,0.4-0.2c0.2,0,0.3,0.1,0.4,0.2l0,0C3,1.1,3.2,1.2,3.3,1.4
	c0.1,0.1,0.2,0.2,0.3,0.3l0.7,0.7c0.3,0.3,0.3,0.5,0,0.8C4.2,3.3,4.2,3.4,4.1,3.5C3.9,3.7,3.7,3.9,3.4,4.1c0,0,0,0,0,0
	C3.2,4.4,3.2,4.6,3.3,4.7l0,0c0.2,0.5,0.5,0.9,0.9,1.4l0,0c0.7,0.9,1.5,1.6,2.4,2.2c0.1,0.1,0.2,0.1,0.3,0.2c0.1,0,0.2,0.1,0.3,0.1
	c0,0,0,0,0,0c0.1,0,0.2,0.1,0.3,0.1c0.2,0,0.4-0.1,0.4-0.2l0.9-0.9C8.9,7.6,9,7.5,9.2,7.5c0.2,0,0.3,0.1,0.4,0.2l1.5,1.5
	C11.3,9.4,11.3,9.7,11.1,10L11.1,10z M11.1,10"/>
</svg>
