<?xml version="1.0" encoding="utf-8"?>
<!-- Generator: Adobe Illustrator 21.0.0, SVG Export Plug-In . SVG Version: 6.00 Build 0)  -->
<svg version="1.1" id="Camada_1" xmlns="http://www.w3.org/2000/svg" xmlns:xlink="http://www.w3.org/1999/xlink" x="0px" y="0px"
	 viewBox="0 0 91 66" style="enable-background:new 0 0 91 66;" xml:space="preserve">
<style type="text/css">
	.st0{fill:#005A9C;}
</style>
<g>
	<g>
		<path class="st0" d="M7.9,59.8c-0.9,0.5-1.8,0.8-2.7,0.8c-1.8,0-3.2-1.2-3.2-3.6V46.7h2.4v3.1h3.3v1.8H4.4v5
			c0,1.3,0.4,1.9,1.2,1.9c0.4,0,1-0.2,1.6-0.5L7.9,59.8z"/>
		<path class="st0" d="M20.3,49.3v11.1h-2.4v-1.9c-0.8,1.3-2.1,2-3.9,2c-3.2,0-5.3-2.3-5.3-5.7c0-3.3,2.1-5.6,5.3-5.6
			c1.8,0,3.2,0.7,4,2v-1.9H20.3z M17.9,55.4v-0.8c-0.2-1.9-1.5-3.2-3.4-3.2c-2,0-3.4,1.5-3.4,3.7c0,2.1,1.4,3.6,3.4,3.6
			C16.4,58.6,17.7,57.3,17.9,55.4z M15.7,47.7h-2.1l2.2-3.1l2.5,1L15.7,47.7z"/>
		<path class="st0" d="M27.9,59.8c-0.9,0.5-1.8,0.8-2.7,0.8c-1.8,0-3.2-1.2-3.2-3.6V46.7h2.4v3.1h3.3v1.8h-3.3v5
			c0,1.3,0.4,1.9,1.2,1.9c0.4,0,1-0.2,1.6-0.5L27.9,59.8z"/>
		<path class="st0" d="M32.4,46.3c0,0.8-0.6,1.4-1.4,1.4c-0.8,0-1.4-0.6-1.4-1.4c0-0.9,0.6-1.5,1.4-1.5
			C31.8,44.8,32.4,45.4,32.4,46.3z M32.2,49.4v11.1h-2.4V49.4H32.2z"/>
		<path class="st0" d="M39.8,51.4c-1.9,0-3.3,1.4-3.3,3.6c0,2.1,1.4,3.6,3.3,3.6c1.4,0,2.5-0.5,3.3-1.3l1.3,1.3
			c-1,1.3-2.6,2.1-4.7,2.1c-3.3,0-5.6-2.3-5.6-5.6c0-3.4,2.3-5.7,5.6-5.7c2,0,3.6,0.6,4.6,1.8L43,52.7
			C42.2,51.9,41.2,51.4,39.8,51.4z"/>
		<path class="st0" d="M57.6,54.9c0,3.4-2.4,5.7-5.8,5.7c-3.5,0-5.8-2.3-5.8-5.7c0-3.4,2.4-5.7,5.8-5.7
			C55.3,49.3,57.6,51.6,57.6,54.9z M48.4,55c0,2.2,1.4,3.6,3.4,3.6c2,0,3.4-1.5,3.4-3.6c0-2.1-1.4-3.6-3.4-3.6
			C49.8,51.4,48.4,52.8,48.4,55z"/>
		<g>
			<path class="st0" d="M68.9,58.1l0.4,0.2c-1.2,1.5-2.6,2.2-4.3,2.2c-3.1,0-5.3-2.3-5.3-5.4c0-3.1,2.2-5.4,5.3-5.4
				c2.2,0,4.1,1.3,4.7,3.3l-9.3,3.8c0.6,2,2.4,3.4,4.7,3.4C66.6,60.1,67.9,59.5,68.9,58.1z M60.1,55.1c0,0.4,0,0.9,0.1,1.3l8.8-3.6
				c-0.6-1.7-2.2-2.6-4.1-2.6C62.1,50.1,60.1,52.2,60.1,55.1z"/>
			<path class="st0" d="M76.4,49.7v0.4c-2.5,0.1-4,1.7-4.1,4.5v5.9h-0.4V49.7h0.4v3C72.9,50.8,74.3,49.8,76.4,49.7z"/>
			<path class="st0" d="M89,55.2c0,3.1-2.2,5.4-5.3,5.4c-2.3,0-4.1-1.3-4.8-3.2v7.3h-0.4V49.7h0.4v3.2c0.8-1.9,2.6-3.2,4.8-3.2
				C86.8,49.7,89,52,89,55.2z M88.6,55.2c0-2.9-2-5-4.8-5c-2.8,0-4.8,2.1-4.8,5c0,2.9,2,5,4.8,5C86.5,60.1,88.6,58,88.6,55.2z"/>
		</g>
	</g>
	<g>
		<path class="st0" d="M53.4,36C48,36,43,36,37.6,36c2.7-4.6,5.2-9.1,7.9-13.8C48.2,26.9,50.7,31.3,53.4,36z"/>
		<g>
			<g>
				<g>
					<path class="st0" d="M65.4,28.2c-5-8.7-10-17.3-15-26c-0.2-0.4-0.9-0.8-1.3-0.9c-1.2,0-2.3,0-3.6,0c-1.2,0-2.4,0-3.6,0
						c-0.5,0-1.1,0.4-1.3,0.9c-5,8.6-10,17.3-15,26c-0.3,0.4-0.2,1.2,0,1.7c1,1.9,2.2,3.8,3.4,6c5.6-9.6,11-19,16.4-28.5
						C51,17,56.4,26.4,61.9,36c1.3-2.2,2.4-4.1,3.4-6C65.6,29.5,65.6,28.7,65.4,28.2z"/>
				</g>
			</g>
		</g>
	</g>
</g>
</svg>
