<?xml version="1.0" encoding="utf-8"?>
<!-- Generator: Adobe Illustrator 21.1.0, SVG Export Plug-In . SVG Version: 6.00 Build 0)  -->
<svg version="1.1" id="Camada_1" xmlns="http://www.w3.org/2000/svg" xmlns:xlink="http://www.w3.org/1999/xlink" x="0px" y="0px"
	 viewBox="0 0 12 12" style="enable-background:new 0 0 12 12;" xml:space="preserve">
<style type="text/css">
	.st0{fill:#005A9C;}
</style>
<g>
	<path class="st0" d="M10.1,4.6V4.1C10.1,3,9.7,2,9,1.2C8.3,0.4,7.3,0,6.2,0H5.8C4.7,0,3.7,0.4,3,1.2C2.3,2,1.9,3,1.9,4.1v0.5
		C1,4.6,0.4,5.3,0.4,6.2v0.7c0,0.9,0.7,1.7,1.7,1.7h0.9c0.2,0,0.3-0.1,0.3-0.3V4.9c0-0.2-0.1-0.3-0.3-0.3H2.5V4.1
		c0-2,1.4-3.5,3.3-3.5h0.4c1.9,0,3.3,1.5,3.3,3.5v0.5H9.1c-0.2,0-0.3,0.1-0.3,0.3v3.4c0,0.2,0.1,0.3,0.3,0.3h0.4
		c-0.1,1.6-1.2,1.9-1.7,2c-0.1-0.4-0.5-0.7-1-0.7H6c-0.6,0-1.1,0.5-1.1,1.1C4.9,11.5,5.4,12,6,12h0.8c0.5,0,0.9-0.3,1-0.8
		c0.2,0,0.6-0.1,1-0.4c0.5-0.3,1.2-1,1.3-2.3c0.9-0.1,1.6-0.8,1.6-1.6V6.2C11.6,5.3,11,4.6,10.1,4.6L10.1,4.6z M2.6,8H2
		c-0.6,0-1-0.5-1-1V6.2c0-0.6,0.5-1,1-1h0.6V8z M6.8,11.4H6c-0.3,0-0.5-0.2-0.5-0.5c0-0.3,0.2-0.5,0.5-0.5h0.8
		c0.3,0,0.5,0.2,0.5,0.5C7.2,11.2,7,11.4,6.8,11.4L6.8,11.4z M11,6.9c0,0.6-0.5,1-1,1H9.4V5.2H10c0.6,0,1,0.5,1,1V6.9z M11,6.9"/>
</g>
</svg>
